<?xml version="1.0" encoding="UTF-8" standalone="no"?>
<svg
   xmlns:dc="http://purl.org/dc/elements/1.1/"
   xmlns:cc="http://creativecommons.org/ns#"
   xmlns:rdf="http://www.w3.org/1999/02/22-rdf-syntax-ns#"
   xmlns:svg="http://www.w3.org/2000/svg"
   xmlns="http://www.w3.org/2000/svg"
   xmlns:sodipodi="http://sodipodi.sourceforge.net/DTD/sodipodi-0.dtd"
   xmlns:inkscape="http://www.inkscape.org/namespaces/inkscape"
   style="font-style:normal;font-weight:normal;font-size:12px;font-family:Dialog;color-interpolation:auto;fill:#000000;fill-opacity:1;stroke:#000000;stroke-width:1;stroke-linecap:square;stroke-linejoin:miter;stroke-miterlimit:10;stroke-dasharray:none;stroke-dashoffset:0;stroke-opacity:1;color-rendering:auto;image-rendering:auto;shape-rendering:auto;text-rendering:auto"
   width="1100"
   height="600"
   version="1.1"
   id="svg199"
   sodipodi:docname="untitled.svg"
   inkscape:version="0.92.3 (2405546, 2018-03-11)">
  <metadata
     id="metadata203">
    <rdf:RDF>
      <cc:Work
         rdf:about="">
        <dc:format>image/svg+xml</dc:format>
        <dc:type
           rdf:resource="http://purl.org/dc/dcmitype/StillImage" />
        <dc:title></dc:title>
      </cc:Work>
    </rdf:RDF>
  </metadata>
  <sodipodi:namedview
     pagecolor="#ffffff"
     bordercolor="#666666"
     borderopacity="1"
     objecttolerance="10"
     gridtolerance="10"
     guidetolerance="10"
     inkscape:pageopacity="0"
     inkscape:pageshadow="2"
     inkscape:window-width="1853"
     inkscape:window-height="1145"
     id="namedview201"
     showgrid="false"
     inkscape:zoom="0.40798705"
     inkscape:cx="579.77492"
     inkscape:cy="377.05209"
     inkscape:window-x="67"
     inkscape:window-y="27"
     inkscape:window-maximized="1"
     inkscape:current-layer="g197" />
  <!--Generated by the Batik Graphics2D SVG Generator-->
  <defs
     id="genericDefs">
    <marker
       inkscape:isstock="true"
       style="overflow:visible"
       id="marker1351"
       refX="0"
       refY="0"
       orient="auto"
       inkscape:stockid="StopL">
      <path
         transform="scale(0.8)"
         style="fill:none;fill-opacity:0.75;fill-rule:evenodd;stroke:#000000;stroke-width:1.00000003pt;stroke-opacity:1"
         d="M 0,5.65 V -5.65"
         id="path1349"
         inkscape:connector-curvature="0" />
    </marker>
    <marker
       inkscape:stockid="StopL"
       orient="auto"
       refY="0"
       refX="0"
       id="StopL"
       style="overflow:visible"
       inkscape:isstock="true"
       inkscape:collect="always">
      <path
         id="path1218"
         d="M 0,5.65 V -5.65"
         style="fill:none;fill-opacity:0.75;fill-rule:evenodd;stroke:#000000;stroke-width:1.00000003pt;stroke-opacity:1"
         transform="scale(0.8)"
         inkscape:connector-curvature="0" />
    </marker>
  </defs>
  <g
     id="g197"
     transform="translate(0,-490)">
    <defs
       id="defs1">
      <clipPath
         clipPathUnits="userSpaceOnUse"
         id="clipPath1">
        <path
           d="M 0,0 H 1853 V 1090 H 0 Z"
           id="path3"
           inkscape:connector-curvature="0" />
      </clipPath>
    </defs>
    <path
       inkscape:connector-curvature="0"
       id="path193"
       style="font-style:normal;font-weight:normal;font-size:12px;font-family:Dialog;color-interpolation:linearRGB;fill:none;fill-opacity:1;fill-rule:evenodd;stroke:#0072bd;stroke-width:2.56399989;stroke-linecap:butt;stroke-linejoin:round;stroke-miterlimit:10;stroke-dasharray:none;stroke-dashoffset:0;stroke-opacity:1;color-rendering:optimizeQuality;image-rendering:optimizeQuality;shape-rendering:auto;text-rendering:geometricPrecision"
       d="m 12.50123,247.38797 2.19057,677.31107 2.19057,51.5445 2.19057,32.76316 2.19057,27.9171 2.19056,10.869 2.19057,-15.44 2.19057,24.0523 2.19057,-8.4407 2.19057,-0.1938 2.19057,-3.8022 2.19057,-0.4895 2.19057,-5.4811 2.19057,9.9562 2.19057,-9.2786 2.19057,15.8096 2.19056,-6.6551 2.19057,14.2405 2.19057,-17.0889 2.19057,-3.3214 2.19057,21.2577 2.19057,-11.9765 2.19057,-0.4839 2.19057,19.7923 2.19057,-5.1808 2.19057,3.5134 2.19057,-19.138 2.19057,-4.133 2.19056,17.9996 2.19057,3.7358 2.19058,-21.2581 2.19057,5.9011 2.19056,-0.05 2.19057,4.9072 2.19057,2.5792 2.19057,-9.3027 2.19057,7.9496 2.19057,6.073 2.19057,-12.4008 2.19057,11.3016 2.19057,-36.5222 2.19056,25.6345 2.19058,12.8734 2.19056,2.3886 2.19057,3.2977 2.19057,-8.5492 2.19057,-8.0243 2.19057,8.1052 2.19057,8.8903 2.19057,-3.4584 2.19057,2.8786 2.19057,5.6885 2.19057,-18.9991 2.19057,-2.1903 2.19056,11.8052 2.19057,7.2624 2.19057,-24.7342 2.19057,13.0869 2.19057,-1.4516 2.19057,-4.2458 2.19057,9.9063 2.19057,-4.9402 2.19057,7.3031 2.19057,-22.4515 2.19057,15.5227 2.19057,1.1543 2.19056,-4.488 2.19057,2.0182 2.19057,-1.1895 2.19057,1.7385 2.19057,13.8769 2.19057,-7.3359 2.19057,-1.7235 2.19057,-11.9762 2.19057,17.6609 2.19057,-0.2906 2.19057,-6.3542 2.19058,-1.1155 2.19056,-12.6455 2.19056,12.2496 2.19056,1.0857 2.19059,0.7559 2.19056,4.64 2.19056,-0.947 2.19059,-18.7479 2.19056,5.0443 2.19056,11.9694 2.19058,-27.6511 2.19056,25.0716 2.19057,10.0635 2.19058,-8.5225 2.19056,0.5727 2.19057,-0.1003 2.19058,-8.6288 2.19056,11.153 2.19056,-7.7927 h 2.19059 l 2.19056,6e-4 2.19056,-6.7224 2.19059,6.3509 2.19056,2.4358 2.19056,-2.1576 2.19058,6.8495 2.19057,-4.9391 2.19056,-5.3338 2.19058,-5.6617 2.19056,5.5382 2.19057,0.091 2.19058,-2.2295 2.19056,11.5987 2.19057,-17.7349 2.19058,4.0207 2.19056,1.1234 2.19056,3.7149 2.19058,0.3567 2.19057,-11.2496 2.19056,-7.7898 2.19059,13.3528 2.19056,6.1158 2.19056,-29.8519 2.19058,15.8808 2.19056,-12.307 2.19056,5.779 2.19059,-75.92104 2.19056,-61.87311 2.19057,-251.24489 2.19058,295.13754 2.19056,57.582 2.19056,12.0902 2.19056,23.3472 2.19059,0.3673 2.19056,10.2239 2.19056,-1.385 2.19059,1.8169 2.19056,15.9665 2.19056,0.7168 2.19058,-8.8214 2.19057,-1.7983 2.19056,12.1671 2.19058,-11.143 2.19056,13.2145 2.19057,-9.2863 2.19058,13.4288 2.19056,-6.4314 2.19056,-7.891 2.19059,15.2813 2.19056,-11.4867 2.19056,2.2876 2.19059,5.5528 2.19056,-3.8771 2.19058,8.4642 2.19057,-5.2846 2.19058,1.3416 2.19053,-6.7903 2.19057,4.1554 2.19058,-1.4236 2.19057,-6.2515 2.19057,7.1763 2.19057,5.9857 2.19058,-2.1048 2.19057,-6.179 2.19057,-0.7955 2.19054,-6.3866 2.19061,13.7035 2.19053,-1.4661 2.19058,-24.1416 2.19057,19.9118 2.19057,2.4629 2.19058,-2.2007 2.19057,5.329 2.19057,-2.6771 2.19058,-7.2328 2.19057,8.8253 2.19057,0.6304 2.19053,0.7108 2.19062,1.5962 2.19053,0.8196 2.19057,-1.423 2.19058,-4.0943 2.19057,-0.087 2.19057,-4.2993 2.19054,2.5794 2.19061,3.4878 2.19053,-2.743 2.19058,5.0949 2.19057,-2.4822 2.19057,0.2983 2.19057,-0.8381 2.19058,-4.5178 2.19057,1.6338 2.19057,4.3386 2.19058,-6.0706 2.19057,3.4703 2.19053,-5.3899 2.19062,4.4173 2.19053,1.6304 2.19057,2.5163 2.19058,1.6018 2.19057,-7.9548 2.19057,7.1299 2.19058,-0.5694 2.19057,3.2519 2.19053,-5.098 2.19061,-8.0302 2.19054,6.8607 2.19057,1.8517 2.19057,-3.4856 2.19058,4.4376 2.19057,2.5423 2.19057,-8.8504 2.19058,7.4392 2.19057,-2.9899 2.19057,-5.7758 2.19058,4.9813 2.19053,0.7489 2.19061,-1.7255 2.19054,5.2359 2.19057,-3.8874 2.19057,0.6456 2.19057,1.4643 2.19058,1.1409 2.19057,0.2279 2.19057,-7.3307 2.19054,6.6646 2.19061,-0.2709 2.19053,-2.2178 2.19058,-1.3429 2.19057,1.7979 2.19057,-2.4665 2.19058,0.9579 2.19057,3.274 2.19057,0.9745 2.19058,-0.026 2.19053,-0.8428 2.19061,-0.8095 2.19053,-5.3115 2.19058,1.6229 2.19057,-2.1083 2.19057,4.0886 2.19058,3.9535 2.19057,-6.3977 2.19057,-7.9835 2.19058,8.6895 2.19057,1.4171 2.19053,-13.2315 2.19058,4.2333 2.19057,-10.4136 2.19057,5.2794 2.19057,-39.6294 2.19058,-69.4752 2.19057,30.82413 2.19057,60.69667 2.19058,19.3443 2.19057,2.1333 2.19053,6.9919 2.19062,-6.3775 2.19053,11.4297 2.19057,-5.068 2.19058,-0.6702 2.19057,3.9927 2.19057,3.8636 2.19058,-10.9044 2.19057,7.713 2.19057,2.9179 2.19057,-3.4818 2.19054,-2.4171 2.19057,6.4571 2.19057,-5.9723 2.19058,3.2781 2.19057,-3.1473 2.19057,5.3067 2.19058,-4.3048 2.19057,3.1934 2.19057,-1.5882 2.19058,2.4453 2.19053,-0.2578 2.19061,-2.0051 2.19054,1.9288 2.19057,1.7142 2.19057,-2.8472 2.19057,1.31 2.19058,-5.3097 2.19057,7.2753 2.19057,-3.7033 2.19058,-2.6045 2.19053,4.5519 2.19061,-1.0204 2.19054,-6.1453 2.19057,7.9446 2.19057,-7.7191 2.19058,3.726 2.19057,2.7019 2.19057,1.0075 2.19058,-10.7703 2.19053,9.8147 2.19061,-2.8427 2.19053,-0.9252 2.19058,5.7704 2.19057,0.165 2.19057,0.8797 2.19058,-4.7608 2.19057,-1.0467 2.19057,-2.0495 2.19058,4.3236 2.19057,2.5267 2.19057,-5.5651 2.19054,-0.4978 2.19061,4.6476 2.19053,-1.5433 2.19057,3.9719 2.19058,-1.1531 2.19057,1.1332 2.19057,-8.6787 2.19058,1.3125 2.19057,2.1603 2.19053,-2.3706 2.19062,3.0384 2.19053,4.3494 2.19057,-2.0332 2.19058,-2.5394 2.19057,-0.072 2.19057,-0.1251 2.19058,0.983 2.19057,0.3476 2.19057,0.2591 2.19057,1.2787 2.19058,-3.5483 2.19053,4.9079 2.19061,-6.1078 2.19054,3.2923 2.19057,-0.6011 2.19057,-0.9399 2.19058,2.4291 2.19057,2.6835 2.19053,-6.5058 2.19062,6.4027 2.19053,-1.2981 2.19057,0.3707 2.19058,-1.3165 2.19057,-1.908 2.19057,0.4507 2.19057,2.6242 2.19058,-3.7267 2.19057,0.326 2.19057,0.4188 2.19058,-2.3242 2.19053,3.8329 2.19061,-4.2593 2.19054,5.4913 2.19057,-0.7781 2.19057,1.5941 2.19058,-2.1025 2.19057,-3.12 2.19057,1.0403 2.19058,2.1757 2.19053,-0.187 2.19061,1.0804 2.19053,1.5565 2.19058,-5.9552 2.19057,1.0494 2.19057,0.8489 2.19058,-0.5494 2.19057,0.7727 2.19057,0.7601 2.19058,-3.244 2.19057,5.0996 2.19057,-5.2939 2.19054,4.4308 2.19061,0.9063 2.19053,-1.7012 2.19057,-4.5625 2.19058,-0.1753 2.1906,-0.4475 2.1905,-7.2638 2.1906,-33.3221 2.1906,33.7711 2.1906,7.1125 2.1905,6.6162 2.1906,-1.6418 2.1905,-2.6648 2.1906,1.4026 2.1906,-4.9307 2.1906,5.1587 2.1905,2.3358 2.1906,-2.814 2.1906,-3.1657 2.1905,4.0568 2.1906,0.8748 2.1906,-3.5102 2.1905,3.4264 2.1906,0.7479 2.1906,-0.5763 2.1906,-1.7901 2.1905,3.8794 2.1906,-4.483 2.1906,4.9106 2.1905,-1.0873 2.1906,-1.7154 2.1906,0.6323 2.1906,-0.7447 2.1905,-2.4047 2.1906,3.7624 2.1905,-1.3135 2.1906,-0.2872 2.1906,0.306 2.1906,0.5437 2.1905,-0.3205 2.1906,-0.7354 2.1906,3.7575 2.1905,-4.3314 2.1906,-0.011 2.1906,0.5676 2.1905,1.6285 2.1906,-0.5077 2.1906,-5.2073 2.1906,4.4497 2.1905,-0.814 2.1906,3.2165 2.1906,-5.4042 2.1905,4.2235 2.1906,-2.1682 2.1906,0.7215 2.1905,1.7472 2.1906,-0.5179 2.1906,1.5957 2.1905,-2.6277 2.1906,-1.1582 2.1906,-0.9593 2.1905,-0.6415 2.1906,3.2354 2.1906,-4.9762 2.1905,2.8246 2.1906,2.2136 2.1906,-0.8402 2.1906,1.1589 2.1905,0.5905 2.1906,-0.7896 2.1906,0.3989 2.1905,-3.274 2.1906,4.6106 2.1906,-3.3305 2.1905,4.182 2.1906,-0.3638 2.1906,-1.8703 2.1906,-1.2093 2.1905,0.7406 2.1906,0.3838 2.1905,-0.4002 2.1906,-2.2385 2.1906,3.601 2.1906,-1.9584 2.1905,0.7958 2.1906,-0.5242 2.1906,-5.9925 2.1905,9.0313 2.1906,-1.5519 2.1906,-3.7059 2.1906,0.542 2.1905,1.0185 2.1906,-0.2914 2.1906,2.8576 2.1905,-2.2944 2.1906,0.2977 2.1906,2.4317 2.1905,-3.2047 2.1906,-0.5662 2.1906,4.1098 2.1906,-3.5279 2.1905,1.6148 2.1906,-0.073 2.1905,-1.531 2.1906,3.4431 2.1906,-0.8981 2.1906,-0.32 2.1905,-0.096 2.1906,-2.0325 2.1906,1.0733 2.1905,-2.9453 2.1906,3.1977 2.1906,-3.0763 2.1905,2.2145 2.1906,0.6907 2.1906,1.7762 2.1905,-1.0482 2.1906,0.4306 2.1906,0.2204 2.1906,-2.6164 2.1905,1.9224 2.1906,0.039 2.1905,1.2657 2.1906,-6.6268 2.1906,4.3715 2.1906,-0.7935 2.1905,1.3517 2.1906,-5.3354 2.1906,5.0394 2.1906,-1.5997 2.1905,-1.2949 2.1906,0.665 2.1905,-8.6155 2.1906,10.4344 2.1906,-4.5794 2.1906,2.6891 2.1905,0.4182 2.1906,2.2877 2.1906,-1.0385 2.1905,2.7307 2.1906,-1.8142 2.1906,-1.7089 2.1906,1.6614 2.1905,1.9836 2.1906,-0.8281 2.1905,1.2383 2.1906,-5.8202 2.1906,4.7371 2.1906,-1.9819 2.1905,2.8678 2.1906,-3.6607 2.1906,0.7029 2.1906,1.0454 2.1905,-0.1509 2.1906,-0.8692 2.1905,-1.1569 2.1906,2.7728 2.1906,-3.3037 2.1906,2.0432 2.1905,-0.4015 2.1906,0.3489 2.1906,2.738 2.1906,-3.4355 2.1905,2.0573 2.1906,-0.8952 2.1906,1.4541 2.1905,0.6696 2.1906,0.1174 2.1906,-3.1285 2.1906,1.0522 2.1905,0.084 2.1906,-0.6616 2.1905,0.1387 2.1906,-0.5182 2.1906,-1.4507 2.1906,4.4348 2.1905,-8.1175 2.1906,3.2683 2.1906,1.2373 2.1906,-2.2157 2.1905,1.8694 2.1906,3.9498 2.1905,-2.4442 2.1906,-3.7433 2.1906,4.2145 2.1906,-1.2791 2.1905,0.7362 2.1906,1.7735 2.1906,-4.1882 2.1905,-0.4186 2.1906,1.8406 2.1906,3.0236 2.1905,-1.4962 2.1906,-1.7004 2.1906,-0.9531 2.1905,2.9666 2.1906,-0.4328 2.1906,-2.2939 2.1906,-1.3965 2.1905,4.965 2.1906,-5.1575 2.1905,0.9303 2.1907,1.7152 2.1905,0.5912 2.1906,0.6227 2.1905,2.0565 2.1906,-4.114 2.1906,1.0434 2.1906,1.8952 2.1905,-0.7554 2.1906,1.2727 2.1906,-2.5025 2.1905,2.181 2.1906,-3.2981 2.1906,-0.8274 2.1905,0.3969 2.1906,2.0991 2.1906,1.7585 2.1905,0.2399 2.1906,0.022 2.1906,-3.073 2.1906,2.199 2.1905,-1.314 2.1906,1.5621 2.1905,-2.5349 2.1906,1.6398 2.1906,-0.5389 2.1906,-0.8843 2.1905,0.7235 2.1906,1.4354 2.1906,-0.2314 2.1906,0.3759 2.1905,-4.2369 2.1906,5.877 2.1905,-4.3003 2.1906,0.056 2.1906,2.4356 2.1906,-0.7499 2.1905,2.1347 2.1906,-0.4463 2.1906,-0.779 2.1905,-0.9787 2.1906,0.968 2.1906,-0.7901 2.1905,-2.0965 2.1906,4.8423 2.1906,-0.7312 2.1905,0.076 2.1906,-3.1904 2.1906,2.4833 2.1906,-1.7199 2.1905,-0.2658 2.1906,-3.6441 2.1905,3.1668 2.1907,3.347 2.1905,-2.1663 2.1906,-4.4734 2.1905,-1.6686 2.1906,7.0293 2.1906,-1.1325 2.1906,-1.3261 2.1905,-0.285 2.1906,1.7079 2.1906,-0.1662 2.1905,-3.1212 2.1906,4.6053 2.1906,0.8769 2.1905,-2.1183 2.1906,0.7744 2.1906,-0.7075 2.1905,-2.6053 2.1906,3.1378 2.1906,-0.614 2.1906,-2.1908 2.1905,3.0247 2.1906,-0.3695 2.1905,-4.7 2.1906,4.6144 2.1906,-6.0604 2.1906,4.0997 2.1905,2.554 2.1906,-1.9882 2.1906,-0.6578 2.1905,0.5098 2.1906,0.6658 2.1906,0.986 2.1905,1.2565 2.1906,-1.6271 2.1906,0.028 2.1906,-1.5563 2.1905,2.3016 2.1906,1.1955 2.1906,-3.9657 2.1905,-0.6606 2.1906,-0.4325 2.1906,1.2836 2.1905,3.4674 2.1906,-0.6775 2.1906,-0.1303 2.1905,-2.7757 2.1906,1.6641 2.1906,-1.2255 2.1906,2.0533 2.1905,0.724 2.1906,-0.2675 2.1905,-0.3924 2.1906,0.4808 2.1906,-1.5285 2.1906,-0.7925 2.1905,3.1509 2.1906,-0.7275 2.1906,0.174 2.1906,-3.688 2.1905,1.2506 2.1906,0.6519 2.1906,-0.5701 2.1905,-0.055 2.1906,0.2761 2.1906,2.3425 2.1905,-1.9787 2.1906,0.4674 2.1906,-1.2764 2.1905,-2.3913 2.1906,2.3079 2.1906,-0.2093 2.1905,0.8456 2.1906,-0.5694 2.1906,2.6819 2.1905,-2.0557 2.1906,0.362 2.1906,1.58 2.1906,0.038 2.1905,-0.4219 2.1906,-1.8967 2.1906,1.0311 2.1905,1.4825"
       sodipodi:nodetypes="ccccccccccccccccccccccccccccccccccccccccccccccccccccccccccccccccccccccccccccccccccccccccccccccccccccccccccccccccccccccccccccccccccccccccccccccccccccccccccccccccccccccccccccccccccccccccccccccccccccccccccccccccccccccccccccccccccccccccccccccccccccccccccccccccccccccccccccccccccccccccccccccccccccccccccccccccccccccccccccccccccccccccccccccccccccccccccccccccccccccccccccccccccccccccccccccccccccccccccccccccccccccccccccccccccccccccccccccccccccccccccccccccccccccccccccccccccccccccccccccccccccccccccccccccccccccccccccccccccccccccccccccccccccccccccccccccccccccccccccccccccccccccccccccccccccccccccccccccccccccccccccccccccccccccccccccccccccccccccccccccccccccccccccccccccccccccccccccccccccccccccccccccccccccccccccccc" />
    <text
       xml:space="preserve"
       style="font-style:normal;font-weight:normal;font-size:40px;line-height:1.25;font-family:sans-serif;letter-spacing:0px;word-spacing:0px;fill:#000000;fill-opacity:1;stroke:none"
       x="300.27975"
       y="650.37567"
       id="text1030"><tspan
         sodipodi:role="line"
         id="tspan1028"
         x="300.27975"
         y="650.37567">peak</tspan></text>
    <path
       style="fill:none;stroke:#000000;stroke-width:3;stroke-linecap:butt;stroke-linejoin:miter;stroke-miterlimit:10;stroke-dasharray:none;stroke-opacity:1;marker-start:url(#StopL);marker-end:url(#StopL)"
       d="M 147.67593,1034.7493 H 257.97355"
       id="path1032"
       inkscape:connector-curvature="0" />
    <path
       style="font-style:normal;font-weight:normal;font-size:12px;font-family:Dialog;color-interpolation:auto;fill:none;fill-opacity:1;stroke:#000000;stroke-width:3;stroke-linecap:butt;stroke-linejoin:miter;stroke-miterlimit:10;stroke-dasharray:none;stroke-dashoffset:0;stroke-opacity:1;marker-start:url(#marker1351);marker-end:url(#marker1351);color-rendering:auto;image-rendering:auto;shape-rendering:auto;text-rendering:auto"
       d="M 311.97355,1034.7493 H 422.27117"
       id="path1032-4"
       inkscape:connector-curvature="0" />
    <text
       xml:space="preserve"
       style="font-style:normal;font-weight:normal;font-size:40px;line-height:1.25;font-family:sans-serif;letter-spacing:0px;word-spacing:0px;fill:#000000;fill-opacity:1;stroke:none"
       x="325.79941"
       y="1005.1545"
       id="text1805"><tspan
         sodipodi:role="line"
         id="tspan1803"
         x="325.79941"
         y="1005.1545">window</tspan></text>
  </g>
</svg>
